<svg xmlns="http://www.w3.org/2000/svg" x="0px" y="0px" width="64" height="64" viewBox="0 0 50 50">
    <path d="M 24.611328 0 C 19.584328 0 16.827406 2.9109219 16.691406 6.9199219 L 20.667969 6.9199219 C 20.803969 4.8559219 22.207625 3.5371094 24.390625 3.5371094 C 26.521625 3.5371094 27.945313 4.8054531 27.945312 6.5644531 C 27.945312 8.2384531 27.235719 9.1372969 25.136719 10.404297 C 22.801719 11.775297 21.820656 13.298891 21.972656 15.837891 L 21.988281 16.988281 L 25.912109 16.988281 L 25.912109 16.023438 C 25.912109 14.349438 26.539812 13.485594 28.757812 12.183594 C 31.057813 10.812594 32.34375 9.0001094 32.34375 6.4121094 C 32.34375 2.6721094 29.246328 0 24.611328 0 z M 24.136719 19.660156 C 22.445719 19.660156 21.328125 20.726187 21.328125 22.367188 C 21.328125 22.591864 21.362176 22.799791 21.40625 23 L 11 23 A 1.0001 1.0001 0 0 0 10.900391 23.005859 A 1.0001 1.0001 0 0 0 10.109375 23.546875 A 1.0001 1.0001 0 0 0 10.105469 23.552734 L 3.1054688 37.552734 A 1.0001165 1.0001165 0 1 0 4.8945312 38.447266 L 10 28.234375 L 10 49 A 1.0001 1.0001 0 0 0 11 50 L 39 50 A 1.0001 1.0001 0 0 0 40 49 L 40 28.234375 L 45.105469 38.447266 A 1.0001163 1.0001163 0 1 0 46.894531 37.552734 L 39.894531 23.552734 A 1.0001 1.0001 0 0 0 39.876953 23.521484 A 1.0001 1.0001 0 0 0 39.833984 23.449219 A 1.0001 1.0001 0 0 0 39.787109 23.384766 A 1.0001 1.0001 0 0 0 39.734375 23.322266 A 1.0001 1.0001 0 0 0 39.722656 23.308594 A 1.0001 1.0001 0 0 0 39.697266 23.283203 A 1.0001 1.0001 0 0 0 39.679688 23.267578 A 1.0001 1.0001 0 0 0 39.626953 23.222656 A 1.0001 1.0001 0 0 0 39.621094 23.216797 A 1.0001 1.0001 0 0 0 39.609375 23.208984 A 1.0001 1.0001 0 0 0 39.552734 23.166016 A 1.0001 1.0001 0 0 0 39.541016 23.158203 A 1.0001 1.0001 0 0 0 39.525391 23.150391 A 1.0001 1.0001 0 0 0 39.453125 23.109375 A 1.0001 1.0001 0 0 0 39.367188 23.072266 A 1.0001 1.0001 0 0 0 39.361328 23.068359 A 1.0001 1.0001 0 0 0 39.349609 23.064453 A 1.0001 1.0001 0 0 0 39.275391 23.039062 A 1.0001 1.0001 0 0 0 39.267578 23.037109 A 1.0001 1.0001 0 0 0 39.205078 23.021484 A 1.0001 1.0001 0 0 0 39.197266 23.019531 A 1.0001 1.0001 0 0 0 39.119141 23.007812 A 1.0001 1.0001 0 0 0 39.107422 23.005859 A 1.0001 1.0001 0 0 0 39.099609 23.005859 A 1.0001 1.0001 0 0 0 39.015625 23 A 1.0001 1.0001 0 0 0 39 23 L 26.871094 23 C 26.913797 22.799831 26.945312 22.591814 26.945312 22.367188 C 26.945312 20.726187 25.863719 19.660156 24.136719 19.660156 z M 12 25 L 38 25 L 38 48 L 12 48 L 12 25 z M 20 30 A 1.0001 1.0001 0 1 0 20 32 L 30 32 A 1.0001 1.0001 0 1 0 30 30 L 20 30 z"/>
</svg>