<svg xmlns="http://www.w3.org/2000/svg" x="0px" y="0px" width="64" height="64" viewBox="0 0 50 50">
    <path d="M 24.964844 1 A 1.0001 1.0001 0 0 0 24.382812 1.2128906 L 4.421875 16.835938 L 1.3828125 19.212891 A 1.0002305 1.0002305 0 1 0 2.6171875 20.787109 L 4 19.705078 L 4 46 A 1.0001 1.0001 0 0 0 5 47 L 27 47 A 1.0001 1.0001 0 0 0 28 46 L 28 32 L 36 32 L 36 46 A 1.0001 1.0001 0 0 0 37 47 L 37.125 47 L 45 47 A 1.0001 1.0001 0 0 0 46 46 L 46 19.705078 L 47.382812 20.787109 A 1.0002308 1.0002308 0 1 0 48.617188 19.212891 L 45.632812 16.878906 L 25.617188 1.2128906 A 1.0001 1.0001 0 0 0 24.964844 1 z M 25 3.2695312 L 44 18.138672 L 44 45 L 38 45 L 38 31 A 1.0001 1.0001 0 0 0 37 30 L 27 30 A 1.0001 1.0001 0 0 0 26 31 L 26 45 L 6 45 L 6 18.138672 L 25 3.2695312 z M 13 20 A 1.0001 1.0001 0 0 0 12 21 L 12 29 A 1.0001 1.0001 0 0 0 13 30 L 21 30 A 1.0001 1.0001 0 0 0 22 29 L 22 21 A 1.0001 1.0001 0 0 0 21 20 L 13 20 z M 14 22 L 20 22 L 20 28 L 14 28 L 14 22 z" />
</svg>